<?xml version="1.0" encoding="UTF-8" standalone="no"?>
<!-- Created with Inkscape (http://www.inkscape.org/) -->

<svg
   xmlns:dc="http://purl.org/dc/elements/1.1/"
   xmlns:cc="http://creativecommons.org/ns#"
   xmlns:rdf="http://www.w3.org/1999/02/22-rdf-syntax-ns#"
   xmlns:svg="http://www.w3.org/2000/svg"
   xmlns="http://www.w3.org/2000/svg"
   xmlns:sodipodi="http://sodipodi.sourceforge.net/DTD/sodipodi-0.dtd"
   xmlns:inkscape="http://www.inkscape.org/namespaces/inkscape"
   width="210mm"
   height="297mm"
   viewBox="0 0 210 297"
   version="1.1"
   id="svg8"
   sodipodi:docname="logo3.svg"
   inkscape:version="0.92.4 (5da689c313, 2019-01-14)">
  <defs
     id="defs2" />
  <sodipodi:namedview
     id="base"
     pagecolor="#ffffff"
     bordercolor="#666666"
     borderopacity="1.0"
     inkscape:pageopacity="0.0"
     inkscape:pageshadow="2"
     inkscape:zoom="0.25"
     inkscape:cx="913.03585"
     inkscape:cy="705.77017"
     inkscape:document-units="mm"
     inkscape:current-layer="layer2"
     showgrid="false"
     inkscape:window-width="1920"
     inkscape:window-height="1027"
     inkscape:window-x="1912"
     inkscape:window-y="-8"
     inkscape:window-maximized="1" />
  <metadata
     id="metadata5">
    <rdf:RDF>
      <cc:Work
         rdf:about="">
        <dc:format>image/svg+xml</dc:format>
        <dc:type
           rdf:resource="http://purl.org/dc/dcmitype/StillImage" />
        <dc:title></dc:title>
      </cc:Work>
    </rdf:RDF>
  </metadata>
  <g
     inkscape:groupmode="layer"
     id="layer2"
     inkscape:label="Layer 2" />
  <g
     inkscape:label="Layer 1"
     inkscape:groupmode="layer"
     id="layer1">
    <g
       id="g4615"
       transform="translate(-82.146356,-29.219845)">
      <path
         sodipodi:nodetypes="ccsccc"
         inkscape:connector-curvature="0"
         id="path3724"
         d="m 99.377345,100.25199 c 0,0 4.944085,2.65724 8.912835,0.95634 3.96875,-1.700892 5.66964,-2.456843 5.48065,-0.18899 -0.18899,2.26786 -1.61494,4.91559 -5.39471,4.34863 -3.77976,-0.56697 -9.266112,-3.07817 -10.21105,-3.83413 -0.290131,-0.98981 0.08025,-1.37159 1.212275,-1.28185 z"
         style="fill:#ffffff;fill-opacity:1;stroke:#ffffff;stroke-width:0.26499999;stroke-linecap:butt;stroke-linejoin:miter;stroke-miterlimit:4;stroke-dasharray:none;stroke-opacity:1" />
      <path
         sodipodi:nodetypes="csccccscccc"
         inkscape:connector-curvature="0"
         id="path3728"
         d="m 115.23691,101.62833 c 0,0 1.36874,3.83223 4.58154,3.92673 3.2128,0.0945 7.65402,-0.56697 7.65402,-0.56697 l 5.19717,-1.22842 c 0,0 0.54451,-0.13624 2.79626,-0.33614 1.3137,-0.38264 0.47327,-1.67433 0.47327,-1.67433 0,0 -1.00168,-1.29682 -5.72638,-0.63536 -4.7247,0.66146 -6.99256,-0.47247 -6.99256,-0.47247 0,0 -1.51191,-1.700894 -3.02381,-1.606401 -1.51191,0.09449 -3.16318,-0.18519 -4.49179,1.096651 z"
         style="fill:#ffffff;fill-opacity:1;stroke:#ffffff;stroke-width:0.26499999;stroke-linecap:butt;stroke-linejoin:miter;stroke-miterlimit:4;stroke-dasharray:none;stroke-opacity:1" />
      <path
         sodipodi:nodetypes="csccsscccssccscscsccccc"
         inkscape:connector-curvature="0"
         id="path3738"
         d="m 97.196246,102.23613 c 0,0 7.601484,2.72259 9.032944,3.92803 1.43146,1.20544 0.22602,4.97243 0.22602,4.97243 0,0 -0.15068,0.97942 1.73281,0.90408 1.8835,-0.0753 7.76001,-1.73282 8.06137,-1.73282 0.30136,0 7.83534,0.97942 10.69826,1.5068 2.86291,0.52738 3.08893,-0.7534 3.08893,-0.7534 0,0 -0.45204,-4.36971 0.97942,-5.04777 1.43145,-0.67806 2.60314,-1.17155 4.43469,-1.39771 2.25501,-0.53031 1.32103,-0.29221 2.34856,-0.53031 1.312,-0.30402 1.73042,-1.27587 2.55916,-4.06345 0.82874,-2.787573 4.52012,-7.645045 4.52012,-7.645045 0,0 0.67806,-1.205436 1.73282,-3.465631 1.05475,-2.260196 2.56155,1.883494 2.93825,3.993012 0.3767,2.109515 -0.15068,17.930884 -1.35612,21.396514 -1.20543,3.46564 -6.4478,19.61638 -10.27753,23.62848 -3.82973,4.0121 -6.82921,4.40821 -6.82921,4.40821 0,0 -7.6132,0.95956 -13.76512,1.23986 -8.61321,0.39243 -12.35156,-2.45072 -12.35156,-2.45072 0,0 -2.7086,-3.04206 -3.27084,-5.25794 -0.56224,-2.21589 -5.390888,-16.76797 -5.390888,-16.76797 0,0 -1.645494,-12.05685 -0.384723,-14.68345 1.260772,-2.62661 1.272637,-2.1812 1.272637,-2.1812 z"
         style="fill:#ffffff;fill-opacity:1;stroke:#ffffff;stroke-width:0.26499999;stroke-linecap:butt;stroke-linejoin:miter;stroke-miterlimit:4;stroke-dasharray:none;stroke-opacity:1" />
      <path
         inkscape:connector-curvature="0"
         id="path3740"
         d="m 168.88335,98.379512 c -0.47108,-0.529969 -8.42061,-5.711884 -11.01157,-7.066249 -2.59096,-1.354365 -6.94848,-3.592009 -9.00947,-5.064146 -2.06099,-1.472133 -6.65405,-7.007362 -7.41956,-8.538382 -0.76551,-1.531022 -2.35542,-7.184022 -3.47424,-9.068352 -1.11882,-1.884334 0.23554,-1.707679 0.23554,-1.707679 0,0 3.47424,2.355416 6.41851,3.592009 2.94427,1.236594 11.12935,2.414302 19.13776,3.650896 8.00842,1.236593 11.48266,5.947428 12.66037,7.890645 1.1777,1.943219 1.41324,6.124082 1.05993,11.306 -0.35331,5.181915 -1.88433,8.479496 -1.88433,8.479496 0,0 -3.29758,4.00421 -7.53733,6.53628 -4.23975,2.53208 -18.13671,4.41641 -18.13671,4.41641 0,0 1.64879,-13.013676 1.82545,-13.60253 0.17666,-0.588854 3.76867,-1.354365 3.76867,-7.478447"
         style="fill:#ffffff;fill-opacity:1;stroke:#ffffff;stroke-width:0.26499999;stroke-linecap:butt;stroke-linejoin:miter;stroke-miterlimit:4;stroke-dasharray:none;stroke-opacity:1" />
      <path
         inkscape:connector-curvature="0"
         id="path3742"
         d="m 126.80156,62.016928 2.05052,-1.521355 c 0,0 4.72943,0.132292 6.28386,-0.595312 1.55442,-0.727604 7.60677,-3.671094 7.60677,-3.671094 0,0 5.45703,-2.910416 9.22734,-3.373437 3.77031,-0.463021 7.9375,-1.124479 11.24479,-0.396875 3.30729,0.727604 11.57552,4.530989 12.89844,5.78776 1.32292,1.256771 4.36562,11.34401 4.56406,12.534635 0.19844,1.190625 1.72758,6.985638 0.0329,11.449659 -1.69468,4.464023 -2.02535,4.918691 -2.02535,4.918691 0,0 -0.28933,-4.298688 -1.116,-5.745361 -0.82667,-1.446675 -3.59602,-5.497361 -8.80405,-7.150703 -5.20802,-1.653341 -14.5494,-2.645346 -15.58274,-2.934681 -1.03334,-0.289335 -7.52271,-1.529342 -9.58938,-2.769349 -2.06668,-1.240004 -11.13822,-6.162458 -16.79117,-6.532578 z"
         style="fill:#ffffff;fill-opacity:1;stroke:#ffffff;stroke-width:0.26499999;stroke-linecap:butt;stroke-linejoin:miter;stroke-miterlimit:4;stroke-dasharray:none;stroke-opacity:1" />
      <path
         inkscape:connector-curvature="0"
         id="path3744"
         d="m 92.215133,98.598991 c 1.818677,3.017349 3.389352,3.348019 3.389352,3.348019 0,0 0.70267,0.66134 2.976015,-2.728015 2.27334,-3.38935 3.51335,-8.969378 3.51335,-8.969378 0,0 0.62,-10.002718 1.07467,-13.061399 0.45467,-3.058684 1.15734,-5.24936 2.76935,-7.522705 1.61201,-2.273345 4.09202,-3.926686 7.64671,-5.084027 3.55468,-1.157338 10.20938,-2.438678 10.91205,-2.56268 0.70267,-0.123999 3.76135,-2.68668 3.76135,-2.68668 0,0 4.05069,0.165336 5.9107,-0.330668 1.86001,-0.496001 9.63071,-4.794692 9.63071,-4.794692 0,0 3.76136,-2.562677 12.5654,-3.18268 8.80404,-0.620004 13.51607,2.56268 13.6814,2.56268 0.16534,0 5.00136,2.604013 5.45603,2.852012 0.45467,0.248002 -0.992,-3.678684 -0.992,-3.678684 0,0 -5.30877,-7.978842 -8.9846,-10.834683 -3.67584,-2.855838 -20.54288,-6.040162 -27.1046,-4.894466 -6.56172,1.145696 -11.87359,-0.833233 -32.80859,8.54065 -20.935012,9.373885 -21.247474,31.767052 -21.247474,32.496132 0,0.729081 1.95199,12.836723 7.850177,20.531264 z"
         style="fill:#ffffff;fill-opacity:1;stroke:#ffffff;stroke-width:0.26499999;stroke-linecap:butt;stroke-linejoin:miter;stroke-miterlimit:4;stroke-dasharray:none;stroke-opacity:1" />
      <path
         inkscape:connector-curvature="0"
         id="path3746"
         d="m 82.338676,70.973706 c 0,0 0.331415,4.23477 0.55236,4.603011 0.220946,0.368242 0.257768,-2.356741 1.472965,-6.444218 1.215194,-4.087473 3.461464,-8.837781 4.934429,-11.010402 1.472961,-2.172623 3.792881,-6.849282 9.426966,-10.642163 5.634084,-3.792882 23.641064,-9.574266 23.641064,-9.574266 0,0 10.75264,-1.951677 17.82287,-1.951677 7.07022,0 14.75728,0.398354 22.09947,3.176479 7.34219,2.778125 -11.1125,-6.581511 -20.04219,-8.433594 -8.92968,-1.852083 -18.09088,-3.075781 -30.1625,2.116667 -12.07161,5.192447 -12.766143,4.894791 -18.620049,9.359635 -5.853906,4.464844 -8.896614,12.93151 -9.260416,13.857552 -0.363802,0.926041 -3.134627,7.727098 -1.864969,14.942976 z"
         style="fill:#ffffff;fill-opacity:1;stroke:#ffffff;stroke-width:0.26499999;stroke-linecap:butt;stroke-linejoin:miter;stroke-miterlimit:4;stroke-dasharray:none;stroke-opacity:1" />
    </g>
  </g>
</svg>
